Coordinates
version=1
nRows=49
nColumns=12
inDegrees=yes

Units are S.I. units (second, meters, Newtons, ...)
Angles are in degrees

endheader
time	SC_y	SC_z	SC_x	AC_y	AC_z	AC_x	GH_y	GH_z	GH_yy	EL_x	PS_y
       0.0              -25.15          5.677          41.67          49.71         -1.409         -13.57          170.9          18.05          53.13          11.71           35.5
   0.04889              -25.15          5.682          41.66          49.71         -1.407         -13.57          170.8          18.05           53.1          11.72          35.52
   0.09778              -25.15          5.687          41.66          49.71         -1.405         -13.56          170.8          18.05          53.07          11.72          35.53
    0.1467              -25.16          5.692          41.66          49.71         -1.404         -13.56          170.7          18.04          53.03          11.72          35.55
    0.1956              -25.16          5.698          41.66          49.71         -1.402         -13.56          170.7          18.04          52.99          11.72          35.57
    0.2444              -25.17          5.704          41.66          49.71           -1.4         -13.55          170.7          18.04          52.96          11.72          35.58
    0.2933              -25.17          5.711          41.66          49.71         -1.397         -13.55          170.6          18.04          52.91          11.72           35.6
    0.3422              -25.18          5.718          41.66          49.71         -1.395         -13.54          170.6          18.04          52.87          11.72          35.62
    0.3911              -25.18          5.726          41.66          49.71         -1.393         -13.53          170.5          18.03          52.82          11.73          35.65
      0.44              -25.19          5.734          41.65          49.71          -1.39         -13.53          170.5          18.03          52.77          11.73          35.67
    0.4889              -25.19          5.743          41.65          49.71         -1.387         -13.52          170.4          18.03          52.72          11.73           35.7
    0.5378               -25.2          5.752          41.65          49.71         -1.384         -13.51          170.3          18.03          52.66          11.73          35.73
    0.5867              -25.21          5.762          41.65          49.71         -1.381          -13.5          170.3          18.02          52.59          11.73          35.76
    0.6355              -25.21          5.773          41.65          49.71         -1.377         -13.49          170.2          18.02          52.52          11.74          35.79
    0.6844              -25.22          5.785          41.64          49.71         -1.373         -13.49          170.1          18.02          52.45          11.74          35.82
    0.7333              -25.23          5.798          41.64          49.71         -1.369         -13.47          170.0          18.01          52.37          11.74          35.86
    0.7822              -25.24          5.812          41.64          49.71         -1.364         -13.46          169.9          18.01          52.28          11.75           35.9
    0.8311              -25.25          5.827          41.64          49.71         -1.359         -13.45          169.8           18.0          52.19          11.75          35.95
      0.88              -25.26          5.844          41.63          49.71         -1.354         -13.44          169.7           18.0          52.08          11.75           36.0
    0.9289              -25.27          5.862          41.63          49.71         -1.348         -13.42          169.6          17.99          51.97          11.76          36.05
    0.9778              -25.29          5.882          41.62          49.71         -1.341         -13.41          169.5          17.99          51.84          11.76          36.11
     1.027               -25.3          5.904          41.62          49.71         -1.334         -13.39          169.3          17.98           51.7          11.77          36.18
     1.076              -25.32          5.929          41.62          49.71         -1.326         -13.37          169.1          17.98          51.55          11.77          36.25
     1.124              -25.34          5.956          41.61          49.71         -1.317         -13.35          169.0          17.97          51.38          11.78          36.33
     1.173              -25.36          5.986           41.6          49.71         -1.307         -13.32          168.8          17.96           51.2          11.79          36.42
     1.222              -25.38          6.019           41.6          49.71         -1.296          -13.3          168.5          17.95          50.99          11.79          36.52
     1.271              -25.41          6.057          41.59          49.71         -1.284         -13.27          168.3          17.94          50.75           11.8          36.63
      1.32              -25.43          6.099          41.58           49.7          -1.27         -13.23          168.0          17.93          50.49          11.81          36.75
     1.369              -25.47          6.147          41.57           49.7         -1.254         -13.19          167.7          17.91          50.19          11.82           36.9
     1.418               -25.5          6.201          41.56           49.7         -1.237         -13.15          167.3           17.9          49.85          11.83          37.06
     1.467              -25.55          6.263          41.55           49.7         -1.216          -13.1          166.9          17.88          49.46          11.85          37.24
     1.516              -25.59          6.334          41.54           49.7         -1.193         -13.04          166.4          17.86          49.02          11.87          37.45
     1.564              -25.65          6.415          41.52           49.7         -1.166         -12.98          165.8          17.84          48.51          11.88          37.69
     1.613              -25.71          6.511           41.5           49.7         -1.135          -12.9          165.2          17.81          47.91          11.91          37.97
     1.662              -25.79          6.622          41.48           49.7         -1.098         -12.81          164.4          17.78          47.21          11.93           38.3
     1.711              -25.88          6.753          41.45           49.7         -1.055          -12.7          163.6          17.74          46.39          11.96          38.69
      1.76              -25.98          6.909          41.42          49.69         -1.004         -12.58          162.5          17.69          45.42           12.0          39.16
     1.809              -26.11          7.096          41.38          49.69        -0.9427         -12.43          161.2          17.64          44.25          12.04          39.71
     1.858              -26.27          7.322          41.34          49.69        -0.8685         -12.25          159.7          17.57          42.83          12.09          40.38
     1.907              -26.45          7.599          41.29          49.68        -0.7778         -12.02          157.8           17.5           41.1          12.16           41.2
     1.956              -26.68           7.94          41.22          49.68        -0.6658         -11.75          155.5           17.4          38.97          12.23          42.21
     2.004              -26.97          8.365          41.13          49.67        -0.5262          -11.4          152.6          17.27          36.31          12.33          43.47
     2.053              -27.34          8.901          41.03          49.67        -0.3503         -10.97          149.0          17.12          32.96          12.45          45.06
     2.102               -27.8          9.582          40.89          49.66        -0.1268         -10.42          144.4          16.92           28.7          12.61          47.08
     2.151              -28.39          10.45          40.72          49.65         0.1594         -9.719          138.5          16.67          23.24          12.81          49.66
       2.2              -29.15          11.57           40.5          49.63         0.5266         -8.816          130.9          16.35          16.25          13.07          52.98
     2.249              -30.12           13.0          40.22          49.61         0.9956         -7.663          121.2          15.94          7.307           13.4          57.22
     2.298              -31.34           14.8          39.86          49.59          1.585         -6.214          109.1          15.42         -3.933          13.81          62.54
     2.347              -32.82          16.99          39.43          49.56          2.304         -4.447          94.23          14.79         -17.63          14.31          69.04
